<?xml version="1.0" encoding="utf-8"?>
<!-- Generator: Adobe Illustrator 21.1.0, SVG Export Plug-In . SVG Version: 6.00 Build 0)  -->
<svg version="1.1" id="Calque_1" xmlns="http://www.w3.org/2000/svg" xmlns:xlink="http://www.w3.org/1999/xlink" x="0px" y="0px"
	 viewBox="0 0 359 203.5" style="enable-background:new 0 0 359 203.5;" xml:space="preserve">
<style type="text/css">
	.st0{fill:#5C7EE5;}
	.st1{fill:#519D9E;}
	.st2{fill:#9DC8C8;}
	.st3{fill:#58C9B9;}
</style>
<title>NaoV11</title>
<g id="Calque_1_1_">
	<path class="st0" d="M109.4,4.1L109.4,4.1l5.1-0.1L108,2.4l-2.1,1.1c-0.3,0-0.6,0-0.8,0.1l2.2-3.6l-6.5,3.3L100.6,6
		c-0.6,0.6-1,1.3-1.4,2.1c-2.6-2.1-9.9-0.1-17,4.8c-7.7,5.3-12.3,11.9-10.3,14.9l0.1,0.1c-2.8,1.1-5.3,3-6,5
		c-0.1,0.1-0.1,0.3-0.1,0.4c-0.7,0.7-1.2,1.6-1.5,2.6c-0.3,1.5,0.9,2.1,2.8,1.9c0,0.1,0,0.2,0,0.4c0.2,1.8,3.5,1.1,7.4-1.6
		c1.1-0.7,2.1-1.5,3-2.4c2.1,0.6,4.4,0.8,6.6,0.6l0.8,4.5l0.5-4.6c0.7-0.1,1.4-0.1,2.1-0.3l0.8,6.1l0.7-6.4c3.9-0.8,7.3-2.4,8.5-4.5
		c2.3-4,5-7.7,6.6-10.8c1.9,0.6,2.6,0.7,4.3-0.2l4.7,4.9l-0.9-7.3c2.7-3.3,2.2-8.2-1.1-10.9c-0.5-0.4-1-0.7-1.6-1L109.4,4.1z"/>
	<path class="st1" d="M359,107c0.1,38.9-41.2,96.5-61.1,96.5c-19.9,0-62.3-57.3-62.4-96.2s27.5-70.7,61.6-70.8
		C331.2,36.4,358.9,68.1,359,107z M329.5,107.1c0-20.4-14.5-36.7-32.3-36.7s-32.1,16.5-32.1,36.8s14.5,36.7,32.3,36.7
		S329.5,127.4,329.5,107.1L329.5,107.1z"/>
	<path class="st2" d="M89.3,39.8c-9.7,0.1-17.5,8-17.5,17.6v57.7L33.6,50.7c-0.8-1.6-1.8-3.2-2.8-4.7c-3.3-3.9-8.2-6.2-13.3-6.3
		C7.8,39.8,0,47.7,0,57.3v110.8c0,9.6,7.8,17.4,17.4,17.4s17.4-7.8,17.4-17.4V111L75,178.6h0.1c3.2,4.4,8.4,7,13.8,7
		c9.6,0,17.5-7.8,17.5-17.5V57.4C106.7,47.8,98.9,39.9,89.3,39.8z"/>
	<path class="st3" d="M125,152.2l13.4-34.4c0,0,0.1,0,0.1-0.1l25-65.4c0.4-1.2,0.8-2.4,1.3-3.6l0,0c3-5.5,8.7-8.9,15-8.9
		c5.9-0.1,11.4,3,14.4,8.1h0.1c0.4,1.8,1.6,3.1,1.9,4.9l0,0L238,161.2l0,0c0.6,2.3,1.5,4.7,1.5,7.3c0,9.3-7.6,16.9-16.9,16.9
		c-7.3,0-12.5-4.2-15.5-10c-0.3-0.5-0.5-1-0.6-1.6l0,0l-8.4-21.6l-0.1-0.1h-36.7c0,0-0.1,0-0.1,0.1l-8.1,21.1
		c-2.4,8.3-10.6,13.5-19.1,12c-8.2-1.2-14.1-8.6-14-17c0-1.3,0.2-2.6,0.4-3.8h-0.1c0.3-0.8,18-46.7,18-46.7L125,152.2z M110,152.3
		L110,152.3 M180.2,83.6c-0.1-0.2-0.2-0.2-0.4-0.2c-0.1,0-0.1,0.1-0.2,0.2l-13.9,36.6c-0.1,0.2,0,0.3,0.2,0.4h0.1h27.3
		c0.2,0,0.3-0.1,0.3-0.3v-0.1L180.2,83.6z"/>
</g>
</svg>
